<svg width="17" height="18" viewBox="0 0 17 18" fill="currentColor" stroke="currentColor" xmlns="http://www.w3.org/2000/svg">
  <path d="M8.50169 8.82071C8.84726 8.82071 9.14257 8.69766 9.3876 8.45156C9.63264 8.20547 9.75515 7.90964 9.75515 7.56405C9.75515 7.21848 9.6321 6.92318 9.38601 6.67814C9.13992 6.43311 8.84408 6.31059 8.4985 6.31059C8.15293 6.31059 7.85763 6.43364 7.61259 6.67974C7.36756 6.92583 7.24504 7.22166 7.24504 7.56724C7.24504 7.91282 7.36809 8.20812 7.61419 8.45315C7.86027 8.69819 8.15611 8.82071 8.50169 8.82071ZM8.5001 14.7553C10.0898 13.309 11.2642 11.9972 12.0232 10.8198C12.7822 9.64247 13.1617 8.60555 13.1617 7.70908C13.1617 6.30115 12.7118 5.14832 11.8118 4.2506C10.9118 3.35287 9.80795 2.90401 8.5001 2.90401C7.19224 2.90401 6.08834 3.35287 5.1884 4.2506C4.28844 5.14832 3.83846 6.30115 3.83846 7.70908C3.83846 8.60555 4.22693 9.64247 5.00387 10.8198C5.78081 11.9972 6.94622 13.309 8.5001 14.7553ZM8.5001 16.1718C6.57568 14.5342 5.13834 13.0132 4.18808 11.6087C3.23782 10.2043 2.7627 8.90438 2.7627 7.70908C2.7627 5.91615 3.33942 4.48777 4.49288 3.42396C5.64634 2.36015 6.98208 1.82825 8.5001 1.82825C10.0181 1.82825 11.3539 2.36015 12.5073 3.42396C13.6608 4.48777 14.2375 5.91615 14.2375 7.70908C14.2375 8.90438 13.7624 10.2043 12.8121 11.6087C11.8619 13.0132 10.4245 14.5342 8.5001 16.1718Z" stroke-width="0.5" />
</svg>
